<?xml version="1.0" encoding="UTF-8" standalone="no"?><!DOCTYPE svg PUBLIC "-//W3C//DTD SVG 1.1//EN" "http://www.w3.org/Graphics/SVG/1.1/DTD/svg11.dtd"><svg width="144px" height="144px" version="1.1" xmlns="http://www.w3.org/2000/svg" xmlns:xlink="http://www.w3.org/1999/xlink" xml:space="preserve" xmlns:serif="http://www.serif.com/" style="fill-rule:evenodd;clip-rule:evenodd;stroke-linejoin:round;stroke-miterlimit:2;"><rect id="arrow-left" x="0" y="0" width="144" height="144" style="fill:none;"/><path d="M30.286,79.159l46.751,46.752l0.838,1.009c0.427,0.765 0.855,1.54 1.055,2.389c0.898,3.816 -1.89,8.101 -5.936,8.665c-1.739,0.243 -3.549,-0.183 -4.998,-1.175c-0.361,-0.247 -0.672,-0.559 -1.009,-0.838l-58.883,-58.883c-0.705,-0.84 -0.948,-1.018 -1.416,-2.022c-0.869,-1.864 -0.878,-4.124 0,-6.007c0.468,-1.004 0.711,-1.182 1.416,-2.022l58.883,-58.883c0.337,-0.279 0.648,-0.591 1.009,-0.838c0.725,-0.496 1.535,-0.854 2.389,-1.055c0.85,-0.2 1.734,-0.161 2.609,-0.121c0.426,0.101 0.862,0.162 1.277,0.301c2.907,0.974 4.983,3.989 4.84,7.066c-0.04,0.877 -0.243,1.739 -0.598,2.542c-0.474,1.074 -0.735,1.263 -1.476,2.155l-46.751,46.752l100.61,-0c0.435,0.04 0.87,0.08 1.306,0.121c0.42,0.119 0.853,0.201 1.261,0.359c2.87,1.112 4.793,4.214 4.509,7.282c-0.282,3.048 -2.701,5.756 -5.77,6.33c-0.43,0.08 -0.871,0.081 -1.306,0.121l-100.61,0Z" style="fill-rule:nonzero;"/></svg>