<?xml version="1.0" encoding="UTF-8" standalone="no"?><!DOCTYPE svg PUBLIC "-//W3C//DTD SVG 1.1//EN" "http://www.w3.org/Graphics/SVG/1.1/DTD/svg11.dtd"><svg width="144px" height="144px" version="1.1" xmlns="http://www.w3.org/2000/svg" xmlns:xlink="http://www.w3.org/1999/xlink" xml:space="preserve" xmlns:serif="http://www.serif.com/" style="fill-rule:evenodd;clip-rule:evenodd;stroke-linejoin:round;stroke-miterlimit:2;"><rect id="arrow-right" x="0" y="0" width="144" height="144" style="fill:none;"/><path d="M113.747,64.98l-46.752,-46.752l-0.838,-1.009c-0.426,-0.765 -0.855,-1.54 -1.054,-2.389c-0.898,-3.816 1.889,-8.101 5.936,-8.665c1.739,-0.243 3.549,0.183 4.998,1.175c0.36,0.247 0.672,0.559 1.009,0.838l58.883,58.883c0.704,0.84 0.947,1.018 1.416,2.022c0.869,1.865 0.878,4.124 -0,6.007c-0.469,1.004 -0.712,1.183 -1.416,2.022l-58.883,58.883c-0.337,0.28 -0.649,0.591 -1.009,0.838c-0.725,0.496 -1.535,0.854 -2.39,1.055c-0.849,0.2 -1.733,0.161 -2.608,0.121c-0.426,-0.101 -0.863,-0.162 -1.277,-0.301c-2.907,-0.974 -4.983,-3.989 -4.841,-7.066c0.041,-0.877 0.244,-1.739 0.598,-2.542c0.475,-1.074 0.736,-1.263 1.476,-2.155l46.752,-46.752l-100.61,0c-0.435,-0.04 -0.871,-0.08 -1.306,-0.121c-0.42,-0.119 -0.854,-0.201 -1.261,-0.359c-2.87,-1.112 -4.794,-4.214 -4.509,-7.282c0.282,-3.048 2.701,-5.756 5.77,-6.33c0.43,-0.08 0.87,-0.081 1.306,-0.121l100.61,-0Z" style="fill-rule:nonzero;"/></svg>