<?xml version="1.0" encoding="UTF-8" standalone="no"?><!DOCTYPE svg PUBLIC "-//W3C//DTD SVG 1.1//EN" "http://www.w3.org/Graphics/SVG/1.1/DTD/svg11.dtd"><svg width="144px" height="144px" version="1.1" xmlns="http://www.w3.org/2000/svg" xmlns:xlink="http://www.w3.org/1999/xlink" xml:space="preserve" xmlns:serif="http://www.serif.com/" style="fill-rule:evenodd;clip-rule:evenodd;stroke-linejoin:round;stroke-miterlimit:2;"><rect id="clock" x="0" y="0" width="144" height="144" style="fill:none;"/><path d="M72,12c33.115,0 60,26.885 60,60c0,33.115 -26.885,60 -60,60c-33.115,0 -60,-26.885 -60,-60c0,-33.115 26.885,-60 60,-60Zm0.2,16.232c1.268,0.104 1.615,0.237 2.281,0.502c2.42,0.965 4.22,3.321 4.504,5.925c0.037,0.345 0.032,0.433 0.042,0.78l-0,27.352l16.084,-8.195c0,-0 4.669,-1.655 7.737,0.756c3.655,2.873 3.415,9.451 -0.84,11.918c-0.113,0.066 -0.229,0.125 -0.344,0.187l-26.578,13.542c-1.433,0.683 -1.988,0.74 -2.978,0.781c-3.596,0.148 -7.08,-2.781 -7.474,-6.437c-0.037,-0.343 -0.032,-0.43 -0.042,-0.774l0,-39.13c0.039,-1.44 0.195,-1.874 0.513,-2.671c0.964,-2.42 3.32,-4.221 5.924,-4.504c0.753,-0.082 0.931,-0.038 1.171,-0.032Z"/></svg>