<?xml version="1.0" encoding="UTF-8" standalone="no"?><!DOCTYPE svg PUBLIC "-//W3C//DTD SVG 1.1//EN" "http://www.w3.org/Graphics/SVG/1.1/DTD/svg11.dtd"><svg width="144px" height="145px" version="1.1" xmlns="http://www.w3.org/2000/svg" xmlns:xlink="http://www.w3.org/1999/xlink" xml:space="preserve" xmlns:serif="http://www.serif.com/" style="fill-rule:evenodd;clip-rule:evenodd;stroke-linejoin:round;stroke-miterlimit:2;"><rect id="external" x="0" y="0.426" width="144" height="144" style="fill:none;"/><path d="M60,15.426l-46,0c-3.866,0 -7,3.134 -7,7l0,108c0,3.866 3.134,7 7,7l108,0c3.866,0 7,-3.134 7,-7l0,-46c0,-3.863 -3.137,-7 -7,-7c-3.863,0 -7,3.137 -7,7l0,39c0,0 -94,0 -94,0c0,0 -0,-94 -0,-94c0,0 39,0 39,0c3.863,0 7,-3.136 7,-7c0,-3.863 -3.137,-7 -7,-7Zm53.414,6l-62.429,64.117c-2.695,2.768 -2.636,7.203 0.132,9.899c2.768,2.695 7.203,2.636 9.898,-0.132l61.985,-63.66l0,20.776c0,3.864 3.137,7 7,7c3.863,0 7,-3.136 7,-7l0,-38c0,-1.198 -0.301,-2.326 -0.832,-3.313c-0.313,-0.582 -0.713,-1.128 -1.202,-1.62l-0.018,-0.019l-0.058,-0.056l-0.06,-0.059l-0.012,-0.011l-0.021,-0.019l-0.029,-0.027l-0.016,-0.015l-0.023,-0.022l-0.022,-0.02l-0.021,-0.019l-0.026,-0.023l-0.016,-0.014l-0.025,-0.023l-0.028,-0.024l-0.039,-0.034l-0.069,-0.058l-0.03,-0.025c-0.348,-0.288 -0.717,-0.536 -1.101,-0.745l-0.026,-0.015l-0.027,-0.014l-0.037,-0.02l-0.019,-0.009c-0.969,-0.508 -2.072,-0.796 -3.243,-0.796l-38,0c-3.863,0 -7,3.137 -7,7c0,3.864 3.137,7 7,7l21.414,0Z"/></svg>