<?xml version="1.0" encoding="UTF-8" standalone="no"?><!DOCTYPE svg PUBLIC "-//W3C//DTD SVG 1.1//EN" "http://www.w3.org/Graphics/SVG/1.1/DTD/svg11.dtd"><svg width="144px" height="144px" version="1.1" xmlns="http://www.w3.org/2000/svg" xmlns:xlink="http://www.w3.org/1999/xlink" xml:space="preserve" xmlns:serif="http://www.serif.com/" style="fill-rule:evenodd;clip-rule:evenodd;stroke-linejoin:round;stroke-miterlimit:2;"><rect id="heart" x="0" y="0" width="144" height="144" style="fill:none;"/><g id="heart1" serif:id="heart"><path d="M102.396,7.903c15.331,0.167 29.736,10.406 34.092,26.102c4.931,17.772 -1.527,36.696 -10.361,52.157c-11.546,20.208 -30.507,35.945 -50.4,48.694c-0,0 -3.931,2.059 -7.001,0.289c-17.069,-10.861 -32.944,-24.117 -45.006,-40.171c-8.827,-11.749 -15.073,-25.744 -17.161,-39.894c-2.207,-14.959 1.818,-31.877 14.61,-40.784c15.306,-10.657 38.397,-6.952 50.831,8.516c7.191,-8.947 17.993,-14.704 29.607,-14.906c0.263,-0.003 0.526,-0.004 0.789,-0.003Z"/></g></svg>