<?xml version="1.0" encoding="UTF-8" standalone="no"?><!DOCTYPE svg PUBLIC "-//W3C//DTD SVG 1.1//EN" "http://www.w3.org/Graphics/SVG/1.1/DTD/svg11.dtd"><svg width="144px" height="144px" version="1.1" xmlns="http://www.w3.org/2000/svg" xmlns:xlink="http://www.w3.org/1999/xlink" xml:space="preserve" xmlns:serif="http://www.serif.com/" style="fill-rule:evenodd;clip-rule:evenodd;stroke-linejoin:round;stroke-miterlimit:2;"><rect id="location" x="0" y="0" width="144" height="144" style="fill:none;"/><path d="M36.652,61.421c-1.383,-3.908 -2.136,-8.115 -2.136,-12.495c-0,-20.688 16.796,-37.485 37.484,-37.485c20.688,0 37.484,16.797 37.484,37.485c0,6.425 -1.62,12.475 -4.473,17.763l-27.503,62.28c-0.964,2.182 -3.124,3.589 -5.509,3.59c-2.384,-0 -4.545,-1.408 -5.508,-3.589l-27.565,-62.399c-0.879,-1.643 -1.64,-3.36 -2.269,-5.137l-0.006,-0.013l0.001,0Zm35.348,-30.011c9.667,0 17.516,7.849 17.516,17.516c-0,9.667 -7.849,17.515 -17.516,17.515c-9.667,0 -17.516,-7.848 -17.516,-17.515c0,-9.667 7.849,-17.516 17.516,-17.516Z"/></svg>