<?xml version="1.0" encoding="UTF-8" standalone="no"?><!DOCTYPE svg PUBLIC "-//W3C//DTD SVG 1.1//EN" "http://www.w3.org/Graphics/SVG/1.1/DTD/svg11.dtd"><svg width="144px" height="144px" version="1.1" xmlns="http://www.w3.org/2000/svg" xmlns:xlink="http://www.w3.org/1999/xlink" xml:space="preserve" xmlns:serif="http://www.serif.com/" style="fill-rule:evenodd;clip-rule:evenodd;stroke-linejoin:round;stroke-miterlimit:2;"><rect id="printer" x="0" y="0" width="144" height="144" style="fill:none;"/><path d="M32.066,97.146l-21.132,-0c-2.723,-0 -4.934,-2.211 -4.934,-4.934l-0,-29.777l132,-0l0,29.777c0,2.723 -2.21,4.933 -4.934,4.934l-20.65,-0l-0,34.183c-0.071,1.828 -1.55,3.429 -3.706,3.705l-72.938,-0c-1.949,-0.074 -3.629,-1.723 -3.706,-3.707l0,-34.188l0,0.007Zm75.605,-17.355l-70.86,-0l0,50.498l70.86,0l-0,-50.498Zm-11.816,39.2l-47.816,0c-0.178,-0.008 -0.224,-0.004 -0.4,-0.037c-1.731,-0.323 -2.423,-3.159 -0.569,-4.082c0.299,-0.149 0.629,-0.212 0.969,-0.228l47.816,0c0.067,0.003 0.134,0.007 0.201,0.01c1.697,0.236 2.601,2.551 1.264,3.77c-0.298,0.271 -0.67,0.456 -1.065,0.53c-0.176,0.033 -0.222,0.029 -0.4,0.037Zm0,-13.041l-47.816,0c-0.178,-0.008 -0.224,-0.004 -0.4,-0.037c-1.739,-0.325 -2.367,-3.186 -0.569,-4.082c0.299,-0.148 0.629,-0.212 0.969,-0.228l47.816,0c0.067,0.004 0.134,0.007 0.201,0.01c0.176,0.024 0.222,0.024 0.394,0.073c1.633,0.465 2.1,3.177 0.374,4.037c-0.298,0.148 -0.629,0.212 -0.969,0.227Zm0,-13.041l-47.816,0c-0.178,-0.008 -0.224,-0.004 -0.4,-0.037c-1.427,-0.266 -2.257,-2.225 -1.335,-3.446c0.404,-0.535 1.059,-0.832 1.735,-0.864l47.816,0c0.067,0.004 0.134,0.007 0.201,0.01c0.176,0.024 0.222,0.025 0.394,0.073c1.633,0.465 2.1,3.177 0.374,4.037c-0.298,0.148 -0.629,0.212 -0.969,0.227Zm22.791,-12.973l-6.23,-0l-0,9.372l6.23,-0c1.293,-0 2.343,-1.05 2.343,-2.343l-0,-4.686c-0,-1.293 -1.05,-2.343 -2.343,-2.343Zm-86.58,-0l-6.712,-0c-1.294,0.001 -2.343,1.05 -2.343,2.343l0,4.686c0,1.292 1.049,2.342 2.343,2.343l6.712,-0l0,-9.372Zm105.934,-21.421l-132,0l0,-11.257c0,-2.723 2.211,-4.934 4.934,-4.934l15.464,-0l-0,-9.843l5.668,-0l0,-19.81c0.071,-1.828 1.55,-3.43 3.706,-3.705l72.938,0c1.948,0.074 3.629,1.723 3.706,3.707l-0,19.808l5.668,-0l-0,9.843l14.982,-0c2.724,0.001 4.934,2.211 4.934,4.934l0,11.257Zm-13.092,-7.739c-0,-1.623 -1.381,-2.94 -2.939,-2.94c-1.623,0 -2.94,1.317 -2.94,2.94c0,1.622 1.317,2.939 2.94,2.939c1.622,0 2.939,-1.317 2.939,-2.939Zm-17.237,-37.065l-70.86,-0l-0,28.613l70.86,-0l-0,-28.613Z" style="fill-rule:nonzero;"/></svg>