<?xml version="1.0" encoding="UTF-8" standalone="no"?><!DOCTYPE svg PUBLIC "-//W3C//DTD SVG 1.1//EN" "http://www.w3.org/Graphics/SVG/1.1/DTD/svg11.dtd"><svg width="144px" height="144px" version="1.1" xmlns="http://www.w3.org/2000/svg" xmlns:xlink="http://www.w3.org/1999/xlink" xml:space="preserve" xmlns:serif="http://www.serif.com/" style="fill-rule:evenodd;clip-rule:evenodd;stroke-linejoin:round;stroke-miterlimit:2;"><rect id="share" x="0" y="0" width="144" height="144" style="fill:none;"/><path d="M88.339,35.122c-0.223,-1.341 -0.339,-2.718 -0.339,-4.122c-0,-13.798 11.202,-25 25,-25c13.798,0 25,11.202 25,25c-0,13.798 -11.202,25 -25,25c-8.104,0 -15.313,-3.865 -19.883,-9.85l-38.06,19.03c0.614,2.168 0.943,4.456 0.943,6.82c-0,2.364 -0.329,4.652 -0.943,6.82l38.06,19.03c4.569,-5.985 11.778,-9.85 19.883,-9.85c13.798,0 25,11.202 25,25c0,13.798 -11.202,25 -25,25c-13.798,0 -25,-11.202 -25,-25c0,-1.404 0.116,-2.781 0.339,-4.122l-39.252,-19.626c-4.554,4.772 -10.976,7.748 -18.087,7.748c-13.798,0 -25,-11.202 -25,-25c-0,-13.798 11.202,-25 25,-25c7.111,0 13.533,2.976 18.087,7.748l39.252,-19.626Z"/></svg>